<svg width="199" height="199" viewBox="0 0 199 199" fill="none" xmlns="http://www.w3.org/2000/svg">
<g id="Zany face" clip-path="url(#clip0_5_354)">
<path id="Vector" d="M119.858 152.662C149.863 141.004 164.736 107.229 153.078 77.2242C141.419 47.219 107.645 32.346 77.6396 44.0042C47.6346 55.6623 32.7615 89.437 44.4198 119.442C56.0779 149.447 89.8526 164.32 119.858 152.662Z" fill="url(#paint0_radial_5_354)"/>
<path id="Vector_2" opacity="0.5" d="M119.858 152.662C149.863 141.004 164.736 107.229 153.078 77.2242C141.419 47.219 107.645 32.346 77.6396 44.0042C47.6346 55.6623 32.7615 89.437 44.4198 119.442C56.0779 149.447 89.8526 164.32 119.858 152.662Z" fill="url(#paint1_radial_5_354)"/>
<path id="Vector_3" opacity="0.5" d="M119.858 152.662C149.863 141.004 164.736 107.229 153.078 77.2242C141.419 47.219 107.645 32.346 77.6396 44.0042C47.6346 55.6623 32.7615 89.437 44.4198 119.442C56.0779 149.447 89.8526 164.32 119.858 152.662Z" fill="url(#paint2_radial_5_354)"/>
<path id="Vector_4" d="M78.2546 116.496C86.7497 113.196 90.9605 103.633 87.6598 95.1379C84.3591 86.6427 74.7967 82.4317 66.3016 85.7324C57.8062 89.0332 53.5954 98.5957 56.8961 107.091C60.1968 115.586 69.7593 119.797 78.2546 116.496Z" fill="url(#paint3_radial_5_354)"/>
<path id="Vector_5" d="M78.2546 116.496C86.7497 113.196 90.9605 103.633 87.6598 95.1379C84.3591 86.6427 74.7967 82.4317 66.3016 85.7324C57.8062 89.0332 53.5954 98.5957 56.8961 107.091C60.1968 115.586 69.7593 119.797 78.2546 116.496Z" fill="url(#paint4_radial_5_354)"/>
<path id="Vector_6" d="M87.3722 98.9428C86.1671 90.5997 78.4268 84.8131 70.0836 86.018C61.7406 87.223 55.9539 94.9634 57.1589 103.307C58.3639 111.65 66.1041 117.436 74.4473 116.231C82.7905 115.026 88.5771 107.286 87.3722 98.9428Z" fill="white"/>
<path id="Vector_7" d="M77.8052 115.342C85.6626 112.289 89.5575 103.444 86.5045 95.5864C83.4516 87.7289 74.6068 83.834 66.7493 86.887C58.8917 89.94 54.9968 98.7847 58.0497 106.642C61.1028 114.5 69.9475 118.395 77.8052 115.342Z" fill="url(#paint5_radial_5_354)"/>
<path id="Vector_8" d="M77.8052 115.342C85.6626 112.289 89.5575 103.444 86.5045 95.5864C83.4516 87.7289 74.6068 83.834 66.7493 86.887C58.8917 89.94 54.9968 98.7847 58.0497 106.642C61.1028 114.5 69.9475 118.395 77.8052 115.342Z" fill="url(#paint6_radial_5_354)"/>
<path id="Vector_9" d="M113.392 88.5407C121.887 85.2399 126.098 75.6774 122.797 67.1822C119.496 58.6871 109.934 54.476 101.438 57.7768C92.9434 61.0775 88.7324 70.6401 92.0331 79.1353C95.3338 87.6304 104.896 91.8414 113.392 88.5407Z" fill="url(#paint7_radial_5_354)"/>
<path id="Vector_10" d="M113.392 88.5407C121.887 85.2399 126.098 75.6775 122.797 67.1822C119.496 58.6871 109.934 54.476 101.438 57.7768C92.9434 61.0775 88.7324 70.6401 92.0331 79.1353C95.3338 87.6306 104.896 91.8414 113.392 88.5407Z" fill="url(#paint8_radial_5_354)"/>
<path id="Vector_11" d="M121.528 78.9445C124.731 71.1466 121.006 62.2287 113.209 59.0254C105.411 55.8222 96.493 59.5467 93.2897 67.3446C90.0864 75.1422 93.811 84.0602 101.609 87.2634C109.406 90.4668 118.324 86.7422 121.528 78.9445Z" fill="white"/>
<path id="Vector_12" d="M112.942 87.386C120.8 84.333 124.695 75.4882 121.642 67.6306C118.589 59.7731 109.744 55.8782 101.886 58.9312C94.0287 61.9842 90.1338 70.8289 93.1868 78.6864C96.2398 86.5441 105.085 90.4389 112.942 87.386Z" fill="url(#paint9_radial_5_354)"/>
<path id="Vector_13" d="M112.942 87.3862C120.8 84.3332 124.695 75.4884 121.642 67.6309C118.589 59.7733 109.744 55.8784 101.886 58.9314C94.0288 61.9844 90.1339 70.8291 93.1869 78.6868C96.2398 86.5442 105.085 90.4391 112.942 87.3862Z" fill="url(#paint10_radial_5_354)"/>
<path id="Vector_14" d="M135.69 81.5572C135.235 81.6949 134.88 81.9888 134.599 82.3718C127.149 92.77 118.276 102.119 108.197 110.178C98.1054 118.202 86.986 124.789 75.1732 129.692C74.7318 129.863 74.3902 130.191 74.1563 130.595C73.4335 131.853 73.0667 134.731 79.9991 138.994L80.0123 139.028C89.406 144.093 108.647 150.765 128.176 135.244C147.603 119.762 145.409 99.432 142.623 89.1418C139.973 81.4171 137.087 81.1313 135.69 81.5572Z" fill="url(#paint11_radial_5_354)"/>
<path id="Vector_15" d="M134.99 81.868C134.935 81.9283 134.833 81.9679 134.792 82.0622C127.313 92.5888 118.364 102.045 108.15 110.157C97.9357 118.268 86.7485 124.882 74.7866 129.803C74.7187 129.829 74.6301 129.903 74.5622 129.929C73.9679 130.512 71.3526 133.638 79.939 138.939L79.9521 138.973C83.754 141.013 89.1498 143.333 95.5191 144.336C89.2875 143.084 91.5922 137.85 99.2836 133.103C106.975 128.356 116.603 120.746 116.603 120.746C116.603 120.746 126.17 113.082 132.545 106.658C138.921 100.233 144.498 99.1995 144.334 105.516C144.77 99.0939 143.738 93.32 142.589 89.1549C139.342 79.5909 135.671 81.4079 134.99 81.868Z" fill="url(#paint12_linear_5_354)"/>
<path id="Vector_16" d="M137.867 96.6172C140.099 93.9132 140.326 90.0729 138.407 87.1449L136.548 84.2716C129.009 94.7434 120.047 104.166 109.867 112.264C99.6863 120.362 88.5123 127.01 76.6109 131.986L78.981 134.465C81.4117 136.999 85.2008 137.598 88.321 136.073C97.8251 131.364 106.818 125.642 115.178 118.994C123.572 112.333 131.175 104.845 137.867 96.6172Z" fill="url(#paint13_radial_5_354)"/>
<g id="eye2">
<path id="Vector_17" d="M106.426 75.8483C109.858 74.5149 111.559 70.652 110.226 67.2201C108.892 63.7883 105.029 62.0872 101.598 63.4206C98.1658 64.754 96.4647 68.617 97.7981 72.0488C99.1315 75.4806 102.994 77.1817 106.426 75.8483Z" fill="url(#paint14_radial_5_354)"/>
<path id="Vector_18" d="M105.553 73.9994C103.081 74.8814 100.48 74.524 98.4097 73.2183C100.035 75.7915 103.264 76.96 106.257 75.9142C109.251 74.8681 110.985 71.8885 110.63 68.8609C109.822 71.2072 108.024 73.1174 105.553 73.9994Z" fill="url(#paint15_linear_5_354)"/>
</g>
<g id="eye1">
<path id="Vector_19" d="M75.294 109.283C77.5256 108.416 78.6317 105.904 77.7646 103.673C76.8976 101.441 74.3856 100.335 72.154 101.202C69.9223 102.069 68.8162 104.581 69.6833 106.813C70.5503 109.044 73.0623 110.15 75.294 109.283Z" fill="url(#paint16_radial_5_354)"/>
<path id="Vector_20" d="M74.7504 108.087C73.1414 108.673 71.4457 108.433 70.0673 107.601C71.14 109.255 73.2429 110.041 75.2047 109.357C77.1666 108.672 78.2819 106.715 78.0711 104.764C77.5558 106.254 76.3597 107.501 74.7504 108.087Z" fill="url(#paint17_linear_5_354)"/>
</g>
<g id="tongue">
<path id="Vector_21" d="M88.8848 137.222L93.819 150.625C96.203 157.163 103.52 160.808 110.059 158.424C116.597 156.04 119.864 148.556 117.514 142.005C117.514 142.005 117.514 142.005 117.501 141.971L110.303 124.25C103.509 129.195 96.363 133.535 88.8848 137.222Z" fill="url(#paint18_linear_5_354)"/>
<path id="Vector_22" d="M101.586 138.93L104.058 138.048C109.563 153.223 109.098 153.638 108.406 153.867C107.727 154.131 107.078 154.071 101.586 138.93Z" fill="url(#paint19_linear_5_354)"/>
<path id="Vector_23" d="M88.8848 137.222L93.819 150.625C96.203 157.163 103.52 160.808 110.059 158.424C116.597 156.04 119.864 148.556 117.514 142.005C117.514 142.005 117.514 142.005 117.501 141.971L110.303 124.25C103.509 129.195 96.363 133.535 88.8848 137.222Z" fill="url(#paint20_radial_5_354)"/>
</g>
</g>
<defs>
<radialGradient id="paint0_radial_5_354" cx="0" cy="0" r="1" gradientUnits="userSpaceOnUse" gradientTransform="translate(79.5051 80.4689) rotate(-21.2332) scale(70.3142 70.3142)">
<stop stop-color="#FFE030"/>
<stop offset="1" stop-color="#FFB92E"/>
</radialGradient>
<radialGradient id="paint1_radial_5_354" cx="0" cy="0" r="1" gradientUnits="userSpaceOnUse" gradientTransform="translate(79.5051 80.4689) rotate(-21.2332) scale(55.3193 55.3193)">
<stop stop-color="#FFEA5F"/>
<stop offset="1" stop-color="#FFBC47" stop-opacity="0"/>
</radialGradient>
<radialGradient id="paint2_radial_5_354" cx="0" cy="0" r="1" gradientUnits="userSpaceOnUse" gradientTransform="translate(80.0347 79.9154) rotate(-19.5627) scale(55.3206 55.3206)">
<stop stop-color="#FFEA5F"/>
<stop offset="1" stop-color="#FFBC47" stop-opacity="0"/>
</radialGradient>
<radialGradient id="paint3_radial_5_354" cx="0" cy="0" r="1" gradientUnits="userSpaceOnUse" gradientTransform="translate(72.3691 101.052) rotate(-38.5322) scale(16.745)">
<stop offset="0.8945" stop-color="#E89043" stop-opacity="0"/>
<stop offset="0.9103" stop-color="#EE9640" stop-opacity="0.0748107"/>
<stop offset="0.9488" stop-color="#F89F3C" stop-opacity="0.2573"/>
<stop offset="1" stop-color="#FBA23B" stop-opacity="0.5"/>
</radialGradient>
<radialGradient id="paint4_radial_5_354" cx="0" cy="0" r="1" gradientUnits="userSpaceOnUse" gradientTransform="translate(72.3691 101.052) rotate(-38.5322) scale(16.745)">
<stop offset="0.8827" stop-color="#FBA23B" stop-opacity="0"/>
<stop offset="0.9161" stop-color="#FBA23B" stop-opacity="0.5"/>
<stop offset="0.9866" stop-color="#E89043" stop-opacity="0"/>
</radialGradient>
<radialGradient id="paint5_radial_5_354" cx="0" cy="0" r="1" gradientUnits="userSpaceOnUse" gradientTransform="translate(73.4317 102.567) rotate(51.4677) scale(19.1713 19.4048)">
<stop stop-color="#CFDCDE" stop-opacity="0"/>
<stop offset="0.8869" stop-color="#CFDCDE" stop-opacity="0.8869"/>
<stop offset="1" stop-color="#CFDCDE"/>
</radialGradient>
<radialGradient id="paint6_radial_5_354" cx="0" cy="0" r="1" gradientUnits="userSpaceOnUse" gradientTransform="translate(72.8066 102.051) rotate(-38.5322) scale(16.4737 16.4737)">
<stop stop-color="white" stop-opacity="0"/>
<stop offset="0.4376" stop-color="#FDFEFE" stop-opacity="0.3499"/>
<stop offset="0.5952" stop-color="#F6F8F9" stop-opacity="0.4759"/>
<stop offset="0.7075" stop-color="#EBEFF0" stop-opacity="0.5657"/>
<stop offset="0.7983" stop-color="#DAE2E3" stop-opacity="0.6384"/>
<stop offset="0.8752" stop-color="#C4D1D3" stop-opacity="0.6999"/>
<stop offset="0.9004" stop-color="#BBCACC" stop-opacity="0.72"/>
<stop offset="1" stop-color="#99AFB3"/>
</radialGradient>
<radialGradient id="paint7_radial_5_354" cx="0" cy="0" r="1" gradientUnits="userSpaceOnUse" gradientTransform="translate(107.324 73.2379) rotate(141.468) scale(16.745 16.745)">
<stop offset="0.8827" stop-color="#FBA23B" stop-opacity="0"/>
<stop offset="0.9161" stop-color="#FBA23B" stop-opacity="0.5"/>
<stop offset="0.9866" stop-color="#E89043" stop-opacity="0"/>
</radialGradient>
<radialGradient id="paint8_radial_5_354" cx="0" cy="0" r="1" gradientUnits="userSpaceOnUse" gradientTransform="translate(107.324 73.2379) rotate(141.468) scale(16.745 16.745)">
<stop offset="0.8945" stop-color="#E89043" stop-opacity="0"/>
<stop offset="0.9103" stop-color="#EE9640" stop-opacity="0.0748107"/>
<stop offset="0.9488" stop-color="#F89F3C" stop-opacity="0.2573"/>
<stop offset="1" stop-color="#FBA23B" stop-opacity="0.5"/>
</radialGradient>
<radialGradient id="paint9_radial_5_354" cx="0" cy="0" r="1" gradientUnits="userSpaceOnUse" gradientTransform="translate(108.578 74.6225) rotate(51.4677) scale(19.1713 19.4048)">
<stop stop-color="#CFDCDE" stop-opacity="0"/>
<stop offset="0.8869" stop-color="#CFDCDE" stop-opacity="0.8869"/>
<stop offset="1" stop-color="#CFDCDE"/>
</radialGradient>
<radialGradient id="paint10_radial_5_354" cx="0" cy="0" r="1" gradientUnits="userSpaceOnUse" gradientTransform="translate(108.198 73.8888) rotate(141.468) scale(16.4737 16.4737)">
<stop stop-color="white" stop-opacity="0"/>
<stop offset="0.4376" stop-color="#FDFEFE" stop-opacity="0.3499"/>
<stop offset="0.5952" stop-color="#F6F8F9" stop-opacity="0.4759"/>
<stop offset="0.7075" stop-color="#EBEFF0" stop-opacity="0.5657"/>
<stop offset="0.7983" stop-color="#DAE2E3" stop-opacity="0.6384"/>
<stop offset="0.8752" stop-color="#C4D1D3" stop-opacity="0.6999"/>
<stop offset="0.9004" stop-color="#BBCACC" stop-opacity="0.72"/>
<stop offset="1" stop-color="#99AFB3"/>
</radialGradient>
<radialGradient id="paint11_radial_5_354" cx="0" cy="0" r="1" gradientUnits="userSpaceOnUse" gradientTransform="translate(116.471 120.615) rotate(-38.5284) scale(32.109)">
<stop offset="0.00132565" stop-color="#7A4400"/>
<stop offset="1" stop-color="#643800"/>
</radialGradient>
<linearGradient id="paint12_linear_5_354" x1="144.365" y1="89.9674" x2="80.743" y2="140.626" gradientUnits="userSpaceOnUse">
<stop offset="0.00132565" stop-color="#3C2200"/>
<stop offset="0.5" stop-color="#512D00"/>
<stop offset="1" stop-color="#3C2200"/>
</linearGradient>
<radialGradient id="paint13_radial_5_354" cx="0" cy="0" r="1" gradientUnits="userSpaceOnUse" gradientTransform="translate(110.89 113.608) rotate(-38.5284) scale(70.4158)">
<stop offset="0.00132565" stop-color="white"/>
<stop offset="1" stop-color="#A9BCBE"/>
</radialGradient>
<radialGradient id="paint14_radial_5_354" cx="0" cy="0" r="1" gradientUnits="userSpaceOnUse" gradientTransform="translate(97.5858 56.5024) rotate(-19.5627) scale(15.6186 15.6186)">
<stop offset="0.00132565" stop-color="#7A4400"/>
<stop offset="1" stop-color="#643800"/>
</radialGradient>
<linearGradient id="paint15_linear_5_354" x1="99.2626" y1="75.6691" x2="111.485" y2="71.3257" gradientUnits="userSpaceOnUse">
<stop offset="0.00132565" stop-color="#3C2200"/>
<stop offset="1" stop-color="#512D00"/>
</linearGradient>
<radialGradient id="paint16_radial_5_354" cx="0" cy="0" r="1" gradientUnits="userSpaceOnUse" gradientTransform="translate(69.956 94.592) rotate(-19.5627) scale(12.7567 12.7567)">
<stop offset="0.00132565" stop-color="#7A4400"/>
<stop offset="1" stop-color="#643800"/>
</radialGradient>
<linearGradient id="paint17_linear_5_354" x1="70.6191" y1="109.202" x2="78.6033" y2="106.364" gradientUnits="userSpaceOnUse">
<stop offset="0.00132565" stop-color="#3C2200"/>
<stop offset="1" stop-color="#512D00"/>
</linearGradient>
<linearGradient id="paint18_linear_5_354" x1="110.943" y1="160.763" x2="95.7153" y2="119.209" gradientUnits="userSpaceOnUse">
<stop stop-color="#EF708C"/>
<stop offset="1" stop-color="#FF0000"/>
</linearGradient>
<linearGradient id="paint19_linear_5_354" x1="103.518" y1="140.329" x2="112.084" y2="163.934" gradientUnits="userSpaceOnUse">
<stop stop-color="#D93E15" stop-opacity="0"/>
<stop offset="1" stop-color="#D93E15"/>
</linearGradient>
<radialGradient id="paint20_radial_5_354" cx="0" cy="0" r="1" gradientUnits="userSpaceOnUse" gradientTransform="translate(81.0044 93.7897) rotate(-21.2332) scale(49.1057 49.1057)">
<stop offset="0.7746" stop-color="#860805"/>
<stop offset="1" stop-color="#860805" stop-opacity="0"/>
</radialGradient>
<clipPath id="clip0_5_354">
<rect width="153" height="153" fill="white" transform="translate(0 55.4111) rotate(-21.2332)"/>
</clipPath>
</defs>
</svg>
